<svg id="Filled" height="512" viewBox="0 0 512 512" width="512" xmlns="http://www.w3.org/2000/svg">
<g fill="#ffd33a"><circle cx="112" cy="360" r="88"/>
<circle cx="112" cy="152" r="88"/><circle cx="256" cy="152" r="88"/>
<circle cx="400" cy="152" r="88"/><circle cx="256" cy="360" r="88"/>
<circle cx="400" cy="360" r="88"/>
</g><path d="m112 248a95.914 95.914 0 0 0 72.032-32.54 95.926 95.926 0 0 0 144 0 96 96 0 1 0 -.007-126.912 95.909 95.909 0 0 0 -144 0 96 96 0 1 0 -72.025 159.452zm288-176a80 80 0 1 1 -80 80 80.091 80.091 0 0 1 80-80zm-144 0a80.164 80.164 0 0 1 62.24 29.744 95.806 95.806 0 0 0 0 100.514 80 80 0 1 1 -62.24-130.258zm-144 0a80.165 80.165 0 0 1 62.24 29.744 95.806 95.806 0 0 0 0 100.514 80 80 0 1 1 -62.24-130.258z"/>
<path d="m112 176h-16a8 8 0 0 0 0 16h8v8a8 8 0 0 0 16 0v-9.376a24 24 0 0 0 -8-46.624 8 8 0 0 1 0-16h16a8 8 0 0 0 0-16h-8v-8a8 8 0 0 0 -16 0v9.376a24 24 0 0 0 8 46.624 8 8 0 0 1 0 16z"/>
<path d="m208 168a8 8 0 0 0 8 8h3.833c3.3 9.519 8.653 17.494 15.725 23.1a41.1 41.1 0 0 0 26.068 8.9 53.586 53.586 0 0 0 12.2-1.466 8 8 0 0 0 -3.642-15.58c-9.807 2.294-18.112.815-24.678-4.394a31.428 31.428 0 0 1 -8.366-10.56h18.86a8 8 0 0 0 0-16h-23.519a64.792 64.792 0 0 1 -.481-7.939 63.131 63.131 0 0 1 .511-8.061h23.489a8 8 0 0 0 0-16h-18.774a31.5 31.5 0 0 1 8.513-10.779c6.532-5.105 14.718-6.481 24.329-4.09a8 8 0 1 0 3.864-15.526c-14.43-3.591-27.585-1.167-38.046 7.01-7.224 5.646-12.677 13.722-16.032 23.385h-3.854a8 8 0 0 0 0 16h.406c-.261 2.627-.406 5.313-.406 8.061 0 2.7.141 5.351.4 7.939h-.4a8 8 0 0 0 -8 8z"/>
<path d="m388.686 144h-12.686a8 8 0 0 0 0 16h16v16h-16a8 8 0 0 0 0 16h16v8a8 8 0 0 0 16 0v-8h16a8 8 0 0 0 0-16h-16v-16h16a8 8 0 0 0 0-16h-12.686l26.343-26.343a8 8 0 0 0 -11.314-11.314l-26.343 26.343-26.343-26.343a8 8 0 0 0 -11.314 11.314z"/>
<path d="m400 264a95.793 95.793 0 0 0 -71.975 32.548 95.909 95.909 0 0 0 -144 0 95.993 95.993 0 1 0 .006 126.912 95.926 95.926 0 0 0 144 0 95.98 95.98 0 1 0 71.969-159.46zm-288 176a80 80 0 1 1 62.24-130.256 95.806 95.806 0 0 0 0 100.514 79.948 79.948 0 0 1 -62.24 29.742zm144 0a80 80 0 1 1 62.24-130.256 95.806 95.806 0 0 0 0 100.514 79.946 79.946 0 0 1 -62.24 29.742zm144 0a80 80 0 1 1 80-80 80.091 80.091 0 0 1 -80 80z"/>
<path d="m280 320a8 8 0 0 0 0-16 56.078 56.078 0 0 0 -55.419 48h-8.581a8 8 0 0 0 0 16h8v8c0 16-4.25 16-8 16a8 8 0 0 0 0 16h64a8 8 0 0 0 0-16h-41.995a53.489 53.489 0 0 0 2-16v-8h24a8 8 0 0 0 0-16h-23.2a40.067 40.067 0 0 1 39.195-32z"/>
<path d="m448 360a8 8 0 0 0 0-16h-4.9l4.49-13.47a8 8 0 0 0 -15.18-5.06l-6.176 18.53h-17.914l-.628-2.2a8 8 0 0 0 -15.384 0l-.628 2.2h-17.914l-6.176-18.53a8 8 0 0 0 -15.18 5.06l4.49 13.47h-4.9a8 8 0 0 0 0 16h10.234l5.333 16h-15.567a8 8 0 0 0 0 16h20.9l3.51 10.53a8 8 0 0 0 15.282-.332l2.914-10.2h10.788l2.914 10.2a8 8 0 0 0 7.518 5.8h.175a8 8 0 0 0 7.589-5.47l3.51-10.528h20.9a8 8 0 0 0 0-16h-15.567l5.333-16zm-60.892 0-3.7 12.938-4.308-12.938zm12.069 16 .823-2.879.823 2.879zm17.411-3.062-3.696-12.938h8.008z"/>
<path d="m136 304h-48a8 8 0 0 0 -8 8v56h-8a8 8 0 0 0 0 16h8v16a8 8 0 0 0 16 0v-16h16a8 8 0 0 0 0-16h-16v-16h16a8 8 0 0 0 0-16h-16v-16h40a8 8 0 0 0 0-16z"/></svg>